<svg width="150" height="139" viewBox="0 0 150 139" fill="none" xmlns="http://www.w3.org/2000/svg">
<path d="M3.44361 66.4092C2.79979 66.373 2.15974 66.5291 1.60434 66.8577C1.04895 67.1862 0.603137 67.6725 0.323248 68.2551C0.0433585 68.8377 -0.0580451 69.4904 0.0318519 70.1307C0.121749 70.7711 0.398912 71.3704 0.828313 71.8528C1.25771 72.3352 1.82008 72.6792 2.44434 72.8412C3.06861 73.0032 3.72675 72.976 4.33559 72.763C4.94443 72.55 5.47664 72.1607 5.86497 71.6445C6.25331 71.1282 6.48032 70.5081 6.51734 69.8625C6.54268 69.4331 6.48318 69.0029 6.34225 68.5967C6.20132 68.1904 5.98174 67.8161 5.69612 67.4952C5.4105 67.1743 5.06447 66.9132 4.67791 66.7268C4.29135 66.5404 3.87189 66.4325 3.44361 66.4092Z" fill="#1D439B"/>
<path d="M41.1008 68.977C40.9471 71.6626 41.8627 74.2997 43.6466 76.3087C45.4305 78.3177 47.9367 79.5343 50.6145 79.6912H51.1663C53.1385 79.689 55.0669 79.1078 56.7134 78.0192C58.36 76.9306 59.6527 75.3823 60.432 73.5655C61.2113 71.7486 61.4431 69.7427 61.0987 67.7952C60.7543 65.8478 59.8489 64.0441 58.4942 62.6068C57.1395 61.1694 55.3947 60.1613 53.4753 59.7069C51.5559 59.2525 49.5459 59.3717 47.6932 60.0498C45.8406 60.7278 44.2264 61.935 43.05 63.5224C41.8736 65.1098 41.1864 67.008 41.0732 68.9825L41.1008 68.977Z" fill="#1D439B"/>
<path d="M3.44361 66.4092C2.79979 66.373 2.15974 66.5291 1.60434 66.8577C1.04895 67.1862 0.603137 67.6725 0.323248 68.2551C0.0433585 68.8377 -0.0580451 69.4904 0.0318519 70.1307C0.121749 70.7711 0.398912 71.3704 0.828313 71.8528C1.25771 72.3352 1.82008 72.6792 2.44434 72.8412C3.06861 73.0032 3.72675 72.976 4.33559 72.763C4.94443 72.55 5.47664 72.1607 5.86497 71.6445C6.25331 71.1282 6.48032 70.5081 6.51734 69.8625C6.54268 69.4331 6.48318 69.0029 6.34225 68.5967C6.20132 68.1904 5.98174 67.8161 5.69612 67.4952C5.4105 67.1743 5.06447 66.9132 4.67791 66.7268C4.29135 66.5404 3.87189 66.4325 3.44361 66.4092Z" fill="#1D439B"/>
<path d="M40.4609 10.1984C41.0343 9.90305 41.5078 9.44423 41.8217 8.87964C42.1357 8.31505 42.2761 7.66994 42.2252 7.02551C42.1744 6.38108 41.9346 5.76614 41.536 5.25809C41.1374 4.75005 40.5979 4.37161 39.9853 4.17041C39.3727 3.96922 38.7145 3.95426 38.0934 4.12742C37.4724 4.30058 36.9163 4.65413 36.4952 5.14355C36.0741 5.63296 35.8068 6.23638 35.7269 6.87784C35.647 7.5193 35.7581 8.17013 36.0462 8.7484C36.2399 9.13546 36.508 9.48026 36.8352 9.7629C37.1624 10.0455 37.5421 10.2605 37.9525 10.3952C38.3629 10.53 38.7958 10.582 39.2263 10.5482C39.6568 10.5144 40.0764 10.3955 40.4609 10.1984Z" fill="#1D439B"/>
<path d="M50.7085 28.118C51.599 27.6675 52.3364 26.9624 52.8273 26.0916C53.3183 25.2209 53.5408 24.2238 53.4667 23.2263C53.3927 22.2288 53.0254 21.2757 52.4113 20.4875C51.7972 19.6993 50.9638 19.1114 50.0166 18.7981C49.0694 18.4848 48.0508 18.4602 47.0896 18.7274C46.1285 18.9945 45.2679 19.5415 44.6166 20.2991C43.9654 21.0567 43.5527 21.991 43.4309 22.9838C43.309 23.9765 43.4834 24.9833 43.9319 25.8767C44.2299 26.4702 44.6417 26.9991 45.1436 27.433C45.6455 27.8669 46.2278 28.1974 46.8571 28.4056C47.4864 28.6137 48.1505 28.6955 48.8113 28.6461C49.4722 28.5968 50.1168 28.4173 50.7085 28.118Z" fill="#1D439B"/>
<path d="M16.2243 40.4427C16.9111 40.8957 17.7166 41.1342 18.5386 41.128C19.3607 41.1218 20.1625 40.8712 20.8425 40.4079C21.5225 39.9445 22.0502 39.2894 22.3588 38.5252C22.6674 37.7611 22.7431 36.9223 22.5762 36.115C22.4094 35.3077 22.0075 34.5682 21.4214 33.99C20.8353 33.4118 20.0914 33.021 19.2838 32.867C18.4762 32.7129 17.6411 32.8026 16.8844 33.1246C16.1276 33.4466 15.483 33.9866 15.0323 34.6761C14.4286 35.5995 14.2151 36.7255 14.4386 37.8067C14.6621 38.8879 15.3043 39.836 16.2243 40.4427Z" fill="#1D439B"/>
<path d="M22.366 64.5663C21.3703 64.5099 20.3802 64.7509 19.521 65.2587C18.6618 65.7666 17.972 66.5184 17.5387 67.4194C17.1055 68.3203 16.9484 69.3298 17.0871 70.3203C17.2259 71.3107 17.6544 72.2377 18.3184 72.984C18.9823 73.7304 19.852 74.2625 20.8175 74.5132C21.783 74.764 22.801 74.722 23.7427 74.3927C24.6844 74.0633 25.5077 73.4614 26.1083 72.6629C26.709 71.8644 27.0601 70.9053 27.1174 69.9068C27.1927 68.5669 26.7346 67.2518 25.8437 66.2505C24.9528 65.2491 23.702 64.6433 22.366 64.5663Z" fill="#1D439B"/>
<path d="M16.7759 98.5739C16.0425 98.9456 15.4355 99.5269 15.0316 100.245C14.6277 100.962 14.445 101.784 14.5066 102.605C14.5682 103.427 14.8713 104.212 15.3777 104.861C15.884 105.51 16.5709 105.994 17.3514 106.252C18.1319 106.509 18.9711 106.529 19.7627 106.308C20.5544 106.088 21.2631 105.637 21.7992 105.012C22.3354 104.388 22.6748 103.618 22.7747 102.8C22.8746 101.982 22.7305 101.153 22.3605 100.417C22.1146 99.9278 21.7751 99.4923 21.3614 99.135C20.9476 98.7778 20.4677 98.5058 19.949 98.3346C19.4304 98.1635 18.8832 98.0965 18.3387 98.1376C17.7943 98.1786 17.2632 98.3269 16.7759 98.5739Z" fill="#1D439B"/>
<path d="M36.3827 54.1122C37.3649 54.7577 38.5159 55.0967 39.6901 55.0862C40.8644 55.0758 42.0092 54.7164 42.9798 54.0534C43.9504 53.3905 44.7032 52.4539 45.143 51.3619C45.5828 50.2699 45.6899 49.0717 45.4507 47.9187C45.2115 46.7657 44.6368 45.7098 43.7992 44.8844C42.9616 44.0589 41.8987 43.5011 40.745 43.2814C39.5914 43.0617 38.3986 43.19 37.3176 43.6501C36.2366 44.1102 35.316 44.8814 34.672 45.8663C34.2436 46.5201 33.948 47.2522 33.8022 48.0208C33.6563 48.7893 33.663 49.5792 33.8219 50.3451C33.9808 51.111 34.2888 51.838 34.7282 52.4844C35.1676 53.1308 35.7298 53.684 36.3827 54.1122Z" fill="#1D439B"/>
<path d="M98.5858 27.7196C99.4221 28.2667 100.401 28.5528 101.4 28.5418C102.398 28.5309 103.371 28.2233 104.195 27.658C105.019 27.0927 105.658 26.2951 106.03 25.366C106.402 24.4368 106.491 23.4179 106.286 22.4379C106.081 21.458 105.591 20.561 104.877 19.8604C104.164 19.1598 103.259 18.6871 102.278 18.5019C101.297 18.3167 100.283 18.4275 99.3645 18.8201C98.446 19.2127 97.6642 19.8696 97.1179 20.7078C96.7542 21.2645 96.5036 21.8878 96.3805 22.5418C96.2574 23.1959 96.2642 23.8679 96.4006 24.5192C96.5369 25.1706 96.8002 25.7886 97.1752 26.3378C97.5501 26.887 98.0295 27.3566 98.5858 27.7196Z" fill="#1D439B"/>
<path d="M108.938 9.85517C109.479 10.2105 110.112 10.3971 110.759 10.3912C111.405 10.3854 112.035 10.1875 112.569 9.82243C113.103 9.45742 113.517 8.94173 113.759 8.34061C114.001 7.7395 114.059 7.07998 113.927 6.4455C113.795 5.81102 113.478 5.23009 113.017 4.77621C112.556 4.32233 111.97 4.01591 111.335 3.8957C110.7 3.7755 110.044 3.84692 109.449 4.10092C108.854 4.35493 108.348 4.7801 107.995 5.32266C107.521 6.04937 107.354 6.93489 107.531 7.78472C107.708 8.63456 108.214 9.37923 108.938 9.85517Z" fill="#1D439B"/>
<path d="M99.3804 59.3365C98.056 59.2602 96.7296 59.4462 95.477 59.884C94.2243 60.3218 93.0699 61.0027 92.0796 61.8879C90.0797 63.6756 88.8698 66.1868 88.7161 68.8692C88.5624 71.5515 89.4776 74.1852 91.2602 76.1908C93.0428 78.1965 95.5468 79.4099 98.2215 79.564C98.4146 79.564 98.6133 79.564 98.8064 79.564C100.755 79.563 102.661 78.9968 104.296 77.9337C105.931 76.8705 107.224 75.3558 108.02 73.5721C108.815 71.7885 109.08 69.8121 108.78 67.8812C108.481 65.9504 107.631 64.1476 106.334 62.6902C105.455 61.6963 104.387 60.8878 103.193 60.312C101.999 59.7362 100.703 59.4046 99.3804 59.3365Z" fill="#1D439B"/>
<path d="M54.025 53.4093C54.8633 55.089 56.1526 56.5006 57.7476 57.4852C59.3427 58.4697 61.1801 58.9882 63.053 58.9822C64.7798 58.9826 66.4779 58.5392 67.9852 57.6943C69.4924 56.8494 70.7587 55.6311 71.663 54.1559C72.5673 52.6806 73.0795 50.9976 73.1508 49.2673C73.2221 47.5371 72.85 45.8174 72.0701 44.2723C71.2258 42.6003 69.9341 41.197 68.3396 40.2196C66.7451 39.2422 64.9108 38.7292 63.042 38.7382C61.3205 38.7411 59.6284 39.1851 58.126 40.028C56.6237 40.8708 55.361 42.0847 54.4577 43.5543C53.5545 45.024 53.0406 46.7007 52.9649 48.4254C52.8891 50.1502 53.254 51.8657 54.025 53.4093Z" fill="#1D439B"/>
<path d="M133.213 40.4317C133.947 40.0605 134.554 39.4795 134.959 38.7623C135.363 38.0451 135.546 37.2237 135.485 36.402C135.424 35.5804 135.122 34.7953 134.616 34.1459C134.11 33.4966 133.424 33.0123 132.644 32.754C131.864 32.4958 131.024 32.4753 130.233 32.6951C129.441 32.915 128.732 33.3653 128.195 33.9891C127.658 34.613 127.318 35.3824 127.217 36.2001C127.117 37.0178 127.26 37.8471 127.629 38.5833C128.126 39.5706 128.993 40.3198 130.04 40.6664C131.087 41.013 132.228 40.9286 133.213 40.4317Z" fill="#1D439B"/>
<path d="M107.603 43.6581C106.554 44.1879 105.685 45.0177 105.107 46.0425C104.528 47.0674 104.265 48.2413 104.352 49.4159C104.439 50.5904 104.871 51.7128 105.594 52.6411C106.316 53.5694 107.297 54.262 108.412 54.6311C109.528 55.0003 110.727 55.0296 111.859 54.7152C112.99 54.4008 114.004 53.7569 114.771 52.865C115.538 51.973 116.023 50.873 116.167 49.7041C116.31 48.5351 116.105 47.3498 115.577 46.2979C115.227 45.599 114.742 44.9762 114.152 44.4651C113.562 43.9541 112.876 43.5648 112.136 43.3196C111.395 43.0744 110.613 42.9781 109.836 43.0362C109.058 43.0943 108.299 43.3056 107.603 43.6581Z" fill="#1D439B"/>
<path d="M74.6139 8.32776C75.4345 8.37463 76.2506 8.17636 76.9589 7.75802C77.6672 7.33968 78.2358 6.72007 78.5929 5.97757C78.95 5.23508 79.0795 4.40305 78.965 3.58674C78.8505 2.77043 78.4971 2.00652 77.9496 1.39164C77.4022 0.776758 76.6851 0.338531 75.8892 0.132394C75.0934 -0.0737429 74.2544 -0.0385279 73.4785 0.233584C72.7026 0.505697 72.0246 1.00248 71.5302 1.66109C71.0359 2.31971 70.7475 3.11056 70.7014 3.93361C70.6396 5.03652 71.017 6.1189 71.7507 6.94286C72.4843 7.76682 73.5142 8.26495 74.6139 8.32776Z" fill="#1D439B"/>
<path d="M74.5699 34.5543C75.7421 34.6202 76.9075 34.3361 77.9188 33.738C78.93 33.1399 79.7418 32.2545 80.2514 31.1938C80.7611 30.1332 80.9458 28.9448 80.7821 27.7789C80.6185 26.613 80.1139 25.5219 79.3321 24.6435C78.5503 23.7651 77.5264 23.1389 76.3898 22.8439C75.2532 22.549 74.0549 22.5986 72.9464 22.9864C71.8379 23.3742 70.8689 24.0829 70.1619 25.0229C69.4549 25.9629 69.0416 27.092 68.9743 28.2675C68.8854 29.8452 69.425 31.3938 70.4743 32.5727C71.5236 33.7516 72.9968 34.4644 74.5699 34.5543Z" fill="#1D439B"/>
<path d="M42.3977 95.3419C43.4465 94.8116 44.3149 93.9813 44.893 92.9561C45.4712 91.9309 45.7333 90.7567 45.646 89.5821C45.5587 88.4075 45.126 87.2853 44.4027 86.3573C43.6794 85.4293 42.6979 84.7373 41.5824 84.3688C40.4669 84.0003 39.2674 83.9718 38.1358 84.287C37.0041 84.6021 35.9911 85.2468 35.2248 86.1394C34.4585 87.032 33.9734 88.1325 33.8308 89.3016C33.6882 90.4708 33.8945 91.6561 34.4237 92.7076C35.133 94.1171 36.3715 95.1865 37.8669 95.6805C39.3622 96.1744 40.9919 96.0527 42.3977 95.3419Z" fill="#1D439B"/>
<path d="M78.4051 43.243C77.1736 45.1278 76.604 47.3706 76.7866 49.6165C76.9691 51.8624 77.8933 53.9832 79.4128 55.6431C80.9324 57.3029 82.9606 58.4072 85.1764 58.7811C87.3921 59.1549 89.6689 58.777 91.6465 57.7071C93.624 56.6373 95.1892 54.9366 96.0945 52.8742C96.9998 50.8118 97.1934 48.5056 96.6446 46.3204C96.0959 44.1353 94.8361 42.1961 93.0648 40.8098C91.2934 39.4235 89.1117 38.6692 86.8648 38.6663C85.1867 38.6651 83.5347 39.0829 82.0578 39.8819C80.581 40.6809 79.3257 41.836 78.4051 43.243Z" fill="#1D439B"/>
<path d="M95.9645 85.5962C95.1554 83.9872 93.9328 82.6238 92.423 81.6467C90.9132 80.6697 89.1708 80.1143 87.3755 80.0379C85.5803 79.9615 83.7972 80.3669 82.2103 81.2122C80.6234 82.0576 79.2901 83.3122 78.348 84.8467C77.406 86.3812 76.8892 88.1401 76.8511 89.9417C76.8131 91.7433 77.255 93.5225 78.1313 95.0957C79.0077 96.6689 80.2867 97.9791 81.8365 98.8911C83.3862 99.8031 85.1506 100.284 86.9474 100.284C88.5282 100.273 90.0847 99.8941 91.4946 99.1771C93.8792 97.9666 95.6885 95.8578 96.5262 93.3124C97.364 90.7671 97.162 87.9925 95.9645 85.5962Z" fill="#1D439B"/>
<path d="M113.612 84.8878C112.631 84.2415 111.48 83.9016 110.305 83.9112C109.131 83.9208 107.986 84.2794 107.015 84.9417C106.044 85.6039 105.29 86.5401 104.85 87.6318C104.409 88.7236 104.301 89.9218 104.54 91.075C104.778 92.2282 105.352 93.2846 106.189 94.1106C107.027 94.9366 108.089 95.4951 109.243 95.7154C110.396 95.9358 111.589 95.8081 112.671 95.3486C113.752 94.8891 114.673 94.1183 115.318 93.1338C116.179 91.8127 116.483 90.2031 116.163 88.6575C115.844 87.112 114.926 85.7565 113.612 84.8878Z" fill="#1D439B"/>
<path d="M132.949 69.6743C133.005 68.6757 132.765 67.6828 132.258 66.8211C131.752 65.9594 131.002 65.2676 130.104 64.8331C129.205 64.3987 128.199 64.2411 127.211 64.3803C126.224 64.5194 125.299 64.9491 124.555 65.615C123.811 66.2809 123.28 67.1531 123.03 68.1213C122.78 69.0896 122.822 70.1105 123.15 71.0549C123.479 71.9993 124.079 72.8249 124.875 73.4273C125.671 74.0297 126.628 74.3818 127.623 74.4392C128.96 74.5148 130.271 74.0554 131.269 73.1619C132.268 72.2685 132.872 71.0141 132.949 69.6743Z" fill="#1D439B"/>
<path d="M146.921 66.0716C146.276 66.0343 145.635 66.1898 145.078 66.5182C144.521 66.8467 144.073 67.3334 143.792 67.9168C143.511 68.5002 143.409 69.1542 143.498 69.7959C143.587 70.4377 143.865 71.0384 144.295 71.5222C144.724 72.0059 145.288 72.351 145.913 72.5137C146.539 72.6764 147.198 72.6495 147.808 72.4363C148.418 72.2231 148.952 71.8332 149.341 71.316C149.73 70.7987 149.958 70.1774 149.995 69.5305C150.043 68.6634 149.747 67.8125 149.171 67.1642C148.594 66.5158 147.786 66.123 146.921 66.0716Z" fill="#1D439B"/>
<path d="M133.765 98.5573C133.078 98.1058 132.273 97.8688 131.451 97.8763C130.629 97.8838 129.828 98.1354 129.149 98.5993C128.47 99.0633 127.943 99.7188 127.636 100.483C127.328 101.247 127.253 102.085 127.42 102.892C127.588 103.699 127.99 104.438 128.576 105.015C129.162 105.593 129.906 105.984 130.713 106.137C131.52 106.291 132.355 106.202 133.111 105.88C133.868 105.558 134.512 105.018 134.963 104.329C135.262 103.872 135.469 103.359 135.571 102.821C135.673 102.283 135.668 101.731 135.557 101.195C135.446 100.658 135.23 100.15 134.923 99.6971C134.615 99.2446 134.222 98.8573 133.765 98.5573Z" fill="#1D439B"/>
<path d="M41.0567 129.145C40.5166 128.789 39.8834 128.602 39.2374 128.608C38.5914 128.613 37.9614 128.81 37.4272 129.175C36.893 129.539 36.4785 130.054 36.2362 130.655C35.9938 131.255 35.9344 131.915 36.0656 132.549C36.1967 133.183 36.5125 133.765 36.973 134.219C37.4334 134.673 38.0179 134.981 38.6526 135.102C39.2872 135.224 39.9434 135.153 40.5383 134.901C41.1332 134.648 41.6401 134.224 41.9948 133.683C42.2305 133.323 42.3931 132.92 42.4735 132.498C42.5539 132.075 42.5504 131.64 42.4633 131.219C42.3762 130.797 42.2071 130.397 41.9658 130.041C41.7244 129.686 41.4155 129.381 41.0567 129.145Z" fill="#1D439B"/>
<path d="M109.529 128.802C108.952 129.093 108.474 129.55 108.156 130.114C107.837 130.678 107.693 131.324 107.741 131.97C107.789 132.617 108.027 133.234 108.425 133.745C108.823 134.255 109.363 134.636 109.977 134.839C110.59 135.042 111.25 135.057 111.873 134.884C112.495 134.711 113.053 134.356 113.474 133.865C113.896 133.374 114.163 132.769 114.242 132.126C114.32 131.482 114.207 130.83 113.916 130.252C113.723 129.867 113.457 129.524 113.132 129.243C112.807 128.962 112.43 128.748 112.022 128.613C111.615 128.479 111.185 128.426 110.757 128.458C110.329 128.491 109.912 128.607 109.529 128.802Z" fill="#1D439B"/>
<path d="M71.5844 95.7404C72.816 93.8554 73.3856 91.6124 73.2029 89.3662C73.0202 87.1201 72.0957 84.9992 70.5757 83.3394C69.0558 81.6795 67.0272 80.5755 64.8111 80.202C62.595 79.8286 60.318 80.2071 58.3406 81.2776C56.3632 82.3481 54.7983 84.0495 53.8936 86.1124C52.9889 88.1753 52.7962 90.4819 53.3459 92.667C53.8956 94.8521 55.1563 96.791 56.9285 98.1766C58.7007 99.5623 60.8831 100.316 63.1302 100.317C64.8084 100.323 66.4613 99.9071 67.938 99.1076C69.4148 98.3082 70.6683 97.1505 71.5844 95.7404Z" fill="#1D439B"/>
<path d="M51.4037 111.286C50.569 110.738 49.5913 110.451 48.594 110.461C47.5967 110.47 46.6246 110.776 45.8006 111.34C44.9766 111.903 44.3377 112.699 43.9647 113.627C43.5917 114.555 43.5012 115.572 43.7048 116.551C43.9084 117.531 44.3969 118.427 45.1086 119.128C45.8202 119.829 46.723 120.302 47.7029 120.489C48.6828 120.675 49.6958 120.566 50.6138 120.175C51.5318 119.784 52.3137 119.129 52.8605 118.292C53.593 117.169 53.8509 115.8 53.5778 114.487C53.3046 113.173 52.5226 112.022 51.4037 111.286Z" fill="#1D439B"/>
<path d="M74.9506 130.672C74.1302 130.625 73.3144 130.824 72.6063 131.242C71.8982 131.66 71.3296 132.279 70.9724 133.021C70.6152 133.764 70.4855 134.595 70.5996 135.411C70.7137 136.228 71.0665 136.991 71.6135 137.606C72.1604 138.221 72.8769 138.66 73.6724 138.867C74.4678 139.074 75.3065 139.039 76.0825 138.768C76.8584 138.497 77.5368 138.001 78.0317 137.343C78.5266 136.685 78.816 135.895 78.8631 135.072C78.8945 134.525 78.8181 133.978 78.6384 133.461C78.4587 132.944 78.1792 132.468 77.8159 132.059C77.4525 131.651 77.0125 131.318 76.5208 131.08C76.0292 130.842 75.4956 130.703 74.9506 130.672Z" fill="#1D439B"/>
<path d="M74.9947 104.451C73.8215 104.38 72.6535 104.659 71.6387 105.254C70.6239 105.848 69.8079 106.732 69.2941 107.792C68.7803 108.852 68.5918 110.041 68.7525 111.209C68.9132 112.377 69.4159 113.47 70.1968 114.351C70.9778 115.232 72.0018 115.861 73.1393 116.158C74.2769 116.455 75.4766 116.406 76.5867 116.019C77.6967 115.631 78.6671 114.922 79.3749 113.981C80.0828 113.04 80.4962 111.909 80.5628 110.732C80.6533 109.159 80.1178 107.615 79.074 106.437C78.0301 105.259 76.5631 104.545 74.9947 104.451Z" fill="#1D439B"/>
<path d="M99.2812 110.882C98.3902 111.335 97.6533 112.044 97.1638 112.917C96.6744 113.791 96.4544 114.79 96.5317 115.789C96.609 116.788 96.9802 117.742 97.5981 118.529C98.2161 119.317 99.0531 119.903 100.003 120.213C100.953 120.523 101.974 120.543 102.936 120.272C103.897 120 104.757 119.448 105.406 118.686C106.055 117.924 106.463 116.986 106.58 115.991C106.697 114.996 106.518 113.988 106.063 113.096C105.763 112.503 105.35 111.976 104.847 111.544C104.343 111.112 103.76 110.784 103.13 110.578C102.5 110.373 101.836 110.294 101.175 110.346C100.515 110.398 99.8713 110.58 99.2812 110.882Z" fill="#1D439B"/>
</svg>
