<svg width="21" height="21" viewBox="0 0 21 21" fill="none" xmlns="http://www.w3.org/2000/svg">
<path d="M10.4968 15.1841C10.7856 15.1841 11.0239 15.0933 11.2119 14.9115C11.3999 14.7298 11.4939 14.4945 11.4939 14.2058C11.4939 13.9171 11.401 13.6766 11.2151 13.4845C11.0293 13.2924 10.792 13.1963 10.5032 13.1963C10.2145 13.1963 9.97614 13.2923 9.78813 13.4841C9.60014 13.676 9.50614 13.9163 9.50614 14.205C9.50614 14.4938 9.59908 14.7291 9.78494 14.9111C9.9708 15.0931 10.2081 15.1841 10.4968 15.1841ZM9.69921 11.5405H11.4321V5.79592H9.69921V11.5405ZM10.5076 19.5591C9.25043 19.5591 8.07278 19.3229 6.97462 18.8505C5.87646 18.3781 4.91585 17.7303 4.09278 16.9073C3.26973 16.0842 2.62199 15.1236 2.14956 14.0255C1.67713 12.9274 1.44092 11.7491 1.44092 10.4908C1.44092 9.23241 1.67713 8.0536 2.14956 6.95435C2.62199 5.8551 3.26908 4.89738 4.09086 4.08118C4.91261 3.26498 5.87285 2.61882 6.97157 2.1427C8.07028 1.66659 9.24917 1.42853 10.5082 1.42853C11.7673 1.42853 12.9469 1.66627 14.0472 2.14174C15.1474 2.61722 16.1053 3.26251 16.9209 4.07761C17.7365 4.89272 18.3821 5.85122 18.8579 6.95312C19.3336 8.05503 19.5715 9.23538 19.5715 10.4942C19.5715 11.7524 19.3335 12.9306 18.8573 14.0286C18.3812 15.1267 17.7351 16.0854 16.9189 16.9047C16.1027 17.7241 15.1443 18.3713 14.0439 18.8465C12.9435 19.3216 11.7647 19.5591 10.5076 19.5591V19.5591ZM10.511 17.8262C12.5415 17.8262 14.2684 17.1136 15.6915 15.6883C17.1147 14.2631 17.8263 12.53 17.8263 10.4891C17.8263 8.4585 17.116 6.73164 15.6956 5.3085C14.2752 3.88535 12.5413 3.17378 10.4938 3.17378C8.46645 3.17378 6.7396 3.88399 5.31327 5.30441C3.88697 6.72481 3.17381 8.45874 3.17381 10.5062C3.17381 12.5336 3.88644 14.2604 5.3117 15.6868C6.73696 17.1131 8.47005 17.8262 10.511 17.8262Z" fill="#982A35"/>
</svg>
