<svg width="32" height="32" viewBox="0 0 32 32" fill="none" xmlns="http://www.w3.org/2000/svg">
<g clip-path="url(#clip0_4066_20406)">
<path d="M28.4444 4.44446H18.2222V13.7778H31.9999V8.00001C31.9999 7.05702 31.6253 6.15265 30.9585 5.48586C30.2917 4.81906 29.3874 4.44446 28.4444 4.44446Z" fill="#EEEEEE"/>
<path d="M18.2222 4.44446H13.7778V13.7778H0V18.2222H13.7778V27.5556H18.2222V18.2222H32V13.7778H18.2222V4.44446Z" fill="#E8112D"/>
<path d="M25.7024 8.51997C25.7298 7.965 25.7954 7.41257 25.8989 6.86664C25.3764 6.93153 24.848 6.93153 24.3255 6.86664C24.4295 7.4133 24.4944 7.96619 24.522 8.51997C23.967 8.49262 23.4146 8.42698 22.8687 8.32353C22.9335 8.84596 22.9335 9.37442 22.8687 9.89686C23.4146 9.79335 23.967 9.72771 24.522 9.70042C24.4946 10.2554 24.429 10.8078 24.3255 11.3537C24.848 11.2889 25.3764 11.2889 25.8989 11.3537C25.7954 10.8078 25.7297 10.2554 25.7024 9.70042C26.2574 9.72777 26.8098 9.7934 27.3558 9.89686C27.2909 9.37442 27.2909 8.84596 27.3558 8.32353C26.8082 8.42842 26.2562 8.4933 25.7024 8.51997Z" fill="#E8112D"/>
<path d="M13.7778 4.44446H3.55556C2.61256 4.44446 1.70819 4.81906 1.0414 5.48586C0.374602 6.15265 0 7.05702 0 8.00001L0 13.7778H13.7778V4.44446Z" fill="#EEEEEE"/>
<path d="M7.47977 8.51997C7.50712 7.965 7.57276 7.41257 7.67622 6.86664C7.15378 6.93153 6.62532 6.93153 6.10288 6.86664C6.20688 7.4133 6.27177 7.96619 6.29933 8.51997C5.74435 8.49262 5.19193 8.42698 4.646 8.32353C4.71089 8.84596 4.71089 9.37442 4.646 9.89686C5.19192 9.79335 5.74435 9.72771 6.29933 9.70042C6.27198 10.2554 6.20634 10.8078 6.10288 11.3537C6.62532 11.2889 7.15378 11.2889 7.67622 11.3537C7.57271 10.8078 7.50707 10.2554 7.47977 9.70042C8.03475 9.72777 8.58717 9.7934 9.13311 9.89686C9.06822 9.37442 9.06822 8.84596 9.13311 8.32353C8.58555 8.42842 8.03355 8.4933 7.47977 8.51997Z" fill="#E8112D"/>
<path d="M31.9999 24V18.2222H18.2222V27.5556H28.4444C29.3874 27.5556 30.2917 27.181 30.9585 26.5142C31.6253 25.8474 31.9999 24.943 31.9999 24Z" fill="#EEEEEE"/>
<path d="M25.7024 23.48C25.73 24.0338 25.7949 24.5858 25.8989 25.1334C25.3764 25.0685 24.848 25.0685 24.3255 25.1334C24.4295 24.5867 24.4944 24.0338 24.522 23.48C23.967 23.5074 23.4146 23.573 22.8687 23.6765C22.9335 23.154 22.9335 22.6256 22.8687 22.1031C23.4153 22.2071 23.9682 22.272 24.522 22.2996C24.4946 21.7446 24.429 21.1922 24.3255 20.6462C24.848 20.7111 25.3764 20.7111 25.8989 20.6462C25.7954 21.1922 25.7297 21.7446 25.7024 22.2996C26.2574 22.2722 26.8098 22.2066 27.3558 22.1031C27.2909 22.6256 27.2909 23.154 27.3558 23.6765C26.81 23.5721 26.2575 23.5065 25.7024 23.48Z" fill="#E8112D"/>
<path d="M13.7778 18.2222H0V24C0 24.943 0.374602 25.8474 1.0414 26.5142C1.70819 27.181 2.61256 27.5556 3.55556 27.5556H13.7778V18.2222Z" fill="#EEEEEE"/>
<path d="M7.47977 23.48C7.50733 24.0338 7.57222 24.5858 7.67622 25.1334C7.15378 25.0685 6.62532 25.0685 6.10288 25.1334C6.20688 24.5867 6.27177 24.0338 6.29933 23.48C5.74435 23.5074 5.19193 23.573 4.646 23.6765C4.71089 23.154 4.71089 22.6256 4.646 22.1031C5.19266 22.2071 5.74555 22.272 6.29933 22.2996C6.27198 21.7446 6.20634 21.1922 6.10288 20.6462C6.62532 20.7111 7.15378 20.7111 7.67622 20.6462C7.57271 21.1922 7.50707 21.7446 7.47977 22.2996C8.03475 22.2722 8.58717 22.2066 9.13311 22.1031C9.06822 22.6256 9.06822 23.154 9.13311 23.6765C8.58731 23.5721 8.03482 23.5065 7.47977 23.48Z" fill="#E8112D"/>
</g>
<defs>
<clipPath id="clip0_4066_20406">
<rect width="32" height="32" fill="white"/>
</clipPath>
</defs>
</svg>
