<svg width="21" height="21" viewBox="0 0 21 21" fill="none" xmlns="http://www.w3.org/2000/svg">
<path d="M0.603027 18.5357L10.5 1.42853L20.3971 18.5357H0.603027ZM3.38498 16.9265H17.6151L10.5 4.63466L3.38498 16.9265ZM10.5914 15.7909C10.7831 15.7909 10.9481 15.7206 11.0861 15.5799C11.2242 15.4393 11.2933 15.2731 11.2933 15.0814C11.2933 14.8896 11.2229 14.7267 11.0823 14.5928C10.9417 14.4588 10.7755 14.3918 10.5837 14.3918C10.3919 14.3918 10.227 14.4601 10.0889 14.5966C9.95087 14.7331 9.88183 14.8973 9.88183 15.089C9.88183 15.2808 9.95215 15.4457 10.0928 15.5838C10.2334 15.7219 10.3996 15.7909 10.5914 15.7909ZM9.93129 13.3875H11.2438V8.58642H9.93129V13.3875Z" fill="#665200"/>
</svg>
