<svg width="21" height="21" viewBox="0 0 21 21" fill="none" xmlns="http://www.w3.org/2000/svg">
<path d="M9.1842 14.6667L15.5108 8.34009L14.2573 7.09606L9.1842 12.1692L6.67048 9.65543L5.43881 10.8995L9.1842 14.6667ZM10.5013 19.5591C9.25483 19.5591 8.08083 19.3229 6.97925 18.8505C5.87768 18.3781 4.91536 17.7303 4.09229 16.9073C3.26924 16.0842 2.6215 15.1224 2.14907 14.022C1.67664 12.9216 1.44043 11.7481 1.44043 10.5017C1.44043 9.2407 1.67664 8.05941 2.14907 6.95783C2.6215 5.85626 3.2686 4.89738 4.09037 4.08118C4.91212 3.26498 5.87352 2.61882 6.97456 2.1427C8.07561 1.66659 9.24969 1.42853 10.4968 1.42853C11.7585 1.42853 12.9406 1.66627 14.0432 2.14174C15.1457 2.61722 16.1048 3.26251 16.9204 4.07761C17.736 4.89272 18.3816 5.85122 18.8574 6.95312C19.3331 8.05503 19.571 9.23732 19.571 10.5C19.571 11.7476 19.333 12.9221 18.8568 14.0235C18.3807 15.125 17.7346 16.0867 16.9184 16.9087C16.1022 17.7308 15.1439 18.3781 14.0434 18.8505C12.943 19.3229 11.7623 19.5591 10.5013 19.5591ZM10.4995 17.8262C12.5374 17.8262 14.2679 17.1136 15.6911 15.6883C17.1142 14.2631 17.8258 12.5336 17.8258 10.5C17.8258 8.46214 17.1142 6.73164 15.6911 5.3085C14.2679 3.88535 12.5353 3.17378 10.4934 3.17378C8.46597 3.17378 6.73911 3.88535 5.31279 5.3085C3.88648 6.73164 3.17332 8.46421 3.17332 10.5062C3.17332 12.5336 3.88595 14.2604 5.31121 15.6868C6.73647 17.1131 8.46591 17.8262 10.4995 17.8262Z" fill="#0D5946"/>
</svg>
