<svg width="300" height="300" viewBox="0 0 300 300" fill="none" xmlns="http://www.w3.org/2000/svg">
<path fill-rule="evenodd" clip-rule="evenodd" d="M240 5C240 7.76142 242.239 10 245 10H268C280.15 10 290 19.8497 290 32V55C290 57.7614 292.239 60 295 60V60C297.761 60 300 57.7614 300 55V32C300 14.3269 285.673 0 268 0H245C242.239 0 240 2.23858 240 5V5ZM55 10C57.7614 10 60 7.76142 60 5V5C60 2.23858 57.7614 0 55 0H32C14.3269 0 0 14.3269 0 32V55C0 57.7614 2.23858 60 5 60V60C7.76142 60 10 57.7614 10 55V32C10 19.8497 19.8497 10 32 10H55ZM10 245C10 242.239 7.76142 240 5 240V240C2.23858 240 0 242.239 0 245V268C0 285.673 14.3269 300 32 300H55C57.7614 300 60 297.761 60 295V295C60 292.239 57.7614 290 55 290H32C19.8497 290 10 280.15 10 268V245ZM245 290C242.239 290 240 292.239 240 295V295C240 297.761 242.239 300 245 300H268C285.673 300 300 285.673 300 268V245C300 242.239 297.761 240 295 240V240C292.239 240 290 242.239 290 245V268C290 280.15 280.15 290 268 290H245Z" fill="#F6F6F6"/>
</svg>
