<svg width="32" height="32" viewBox="0 0 32 32" fill="none" xmlns="http://www.w3.org/2000/svg">
<g clip-path="url(#clip0_380_7052)">
<path d="M28.4444 4.44434H18.2222V13.7777H31.9999V7.99989C31.9999 7.0569 31.6253 6.15253 30.9585 5.48573C30.2917 4.81894 29.3874 4.44434 28.4444 4.44434Z" fill="#EEEEEE"/>
<path d="M18.2222 4.44434H13.7778V13.7777H0V18.2221H13.7778V27.5554H18.2222V18.2221H32V13.7777H18.2222V4.44434Z" fill="#E8112D"/>
<path d="M25.7022 8.52003C25.7295 7.96506 25.7952 7.41263 25.8986 6.8667C25.3762 6.93159 24.8477 6.93159 24.3253 6.8667C24.4293 7.41337 24.4942 7.96625 24.5217 8.52003C23.9668 8.49268 23.4143 8.42704 22.8684 8.32359C22.9333 8.84603 22.9333 9.37448 22.8684 9.89692C23.4143 9.79341 23.9668 9.72777 24.5217 9.70048C24.4944 10.2555 24.4288 10.8079 24.3253 11.3538C24.8477 11.2889 25.3762 11.2889 25.8986 11.3538C25.7951 10.8079 25.7295 10.2555 25.7022 9.70048C26.2572 9.72783 26.8096 9.79347 27.3555 9.89692C27.2906 9.37448 27.2906 8.84603 27.3555 8.32359C26.808 8.42848 26.256 8.49337 25.7022 8.52003Z" fill="#E8112D"/>
<path d="M13.7778 4.44434H3.55556C2.61256 4.44434 1.70819 4.81894 1.0414 5.48573C0.374602 6.15253 0 7.0569 0 7.99989L0 13.7777H13.7778V4.44434Z" fill="#EEEEEE"/>
<path d="M7.48002 8.52003C7.50737 7.96506 7.57301 7.41263 7.67646 6.8667C7.15402 6.93159 6.62557 6.93159 6.10313 6.8667C6.20713 7.41337 6.27202 7.96625 6.29957 8.52003C5.7446 8.49268 5.19217 8.42704 4.64624 8.32359C4.71113 8.84603 4.71113 9.37448 4.64624 9.89692C5.19216 9.79341 5.74459 9.72777 6.29957 9.70048C6.27222 10.2555 6.20658 10.8079 6.10313 11.3538C6.62557 11.2889 7.15402 11.2889 7.67646 11.3538C7.57295 10.8079 7.50731 10.2555 7.48002 9.70048C8.03499 9.72783 8.58742 9.79347 9.13335 9.89692C9.06846 9.37448 9.06846 8.84603 9.13335 8.32359C8.58579 8.42848 8.0338 8.49337 7.48002 8.52003Z" fill="#E8112D"/>
<path d="M31.9999 23.9999V18.2222H18.2222V27.5555H28.4444C29.3874 27.5555 30.2917 27.1809 30.9585 26.5141C31.6253 25.8473 31.9999 24.9429 31.9999 23.9999Z" fill="#EEEEEE"/>
<path d="M25.7022 23.48C25.7297 24.0338 25.7946 24.5858 25.8986 25.1334C25.3762 25.0685 24.8477 25.0685 24.3253 25.1334C24.4293 24.5867 24.4942 24.0338 24.5217 23.48C23.9668 23.5074 23.4143 23.573 22.8684 23.6765C22.9333 23.154 22.9333 22.6256 22.8684 22.1031C23.4151 22.2071 23.968 22.272 24.5217 22.2996C24.4944 21.7446 24.4288 21.1922 24.3253 20.6462C24.8477 20.7111 25.3762 20.7111 25.8986 20.6462C25.7951 21.1922 25.7295 21.7446 25.7022 22.2996C26.2572 22.2722 26.8096 22.2066 27.3555 22.1031C27.2906 22.6256 27.2906 23.154 27.3555 23.6765C26.8097 23.5721 26.2572 23.5065 25.7022 23.48Z" fill="#E8112D"/>
<path d="M13.7778 18.2222H0V23.9999C0 24.9429 0.374602 25.8473 1.0414 26.5141C1.70819 27.1809 2.61256 27.5555 3.55556 27.5555H13.7778V18.2222Z" fill="#EEEEEE"/>
<path d="M7.48002 23.48C7.50757 24.0338 7.57246 24.5858 7.67646 25.1334C7.15402 25.0685 6.62557 25.0685 6.10313 25.1334C6.20713 24.5867 6.27202 24.0338 6.29957 23.48C5.7446 23.5074 5.19217 23.573 4.64624 23.6765C4.71113 23.154 4.71113 22.6256 4.64624 22.1031C5.19291 22.2071 5.7458 22.272 6.29957 22.2996C6.27222 21.7446 6.20658 21.1922 6.10313 20.6462C6.62557 20.7111 7.15402 20.7111 7.67646 20.6462C7.57295 21.1922 7.50731 21.7446 7.48002 22.2996C8.03499 22.2722 8.58742 22.2066 9.13335 22.1031C9.06846 22.6256 9.06846 23.154 9.13335 23.6765C8.58755 23.5721 8.03507 23.5065 7.48002 23.48Z" fill="#E8112D"/>
</g>
<defs>
<clipPath id="clip0_380_7052">
<rect width="32" height="32" fill="white"/>
</clipPath>
</defs>
</svg>
