<svg width="31" height="31" viewBox="0 0 31 31" fill="none" xmlns="http://www.w3.org/2000/svg">
  <path
    d="M12.2651 24.9164V22.3584H27.5994V24.9164H12.2651ZM12.2651 16.7789V14.2209H27.5994V16.7789H12.2651ZM12.2651 8.60914V6.05106H27.5994V8.60914H12.2651ZM5.90997 26.093C5.22795 26.093 4.64455 25.8594 4.15976 25.3924C3.675 24.9253 3.43262 24.3442 3.43262 23.6492C3.43262 22.9655 3.67134 22.3834 4.14878 21.9027C4.62625 21.4221 5.21084 21.1818 5.90257 21.1818C6.59428 21.1818 7.17103 21.4259 7.63283 21.9141C8.09462 22.4024 8.32551 22.9893 8.32551 23.6749C8.32551 24.3427 8.089 24.9127 7.61597 25.3848C7.14292 25.8569 6.57425 26.093 5.90997 26.093ZM5.90997 17.9555C5.22795 17.9555 4.64455 17.7145 4.15976 17.2326C3.675 16.7507 3.43262 16.1714 3.43262 15.4947C3.43262 14.818 3.67645 14.2404 4.16412 13.762C4.65181 13.2835 5.23668 13.0443 5.91872 13.0443C6.58298 13.0443 7.15018 13.2853 7.62033 13.7672C8.09045 14.2491 8.32551 14.8284 8.32551 15.5051C8.32551 16.1818 8.089 16.7593 7.61597 17.2378C7.14292 17.7163 6.57425 17.9555 5.90997 17.9555ZM5.87768 9.78569C5.20453 9.78569 4.62872 9.54474 4.15027 9.06284C3.67183 8.58094 3.43262 8.00164 3.43262 7.32493C3.43262 6.64823 3.6733 6.07065 4.15466 5.59219C4.636 5.11374 5.21325 4.87451 5.88643 4.87451C6.55958 4.87451 7.13438 5.11546 7.61084 5.59736C8.08729 6.07926 8.32551 6.65856 8.32551 7.33527C8.32551 8.01197 8.08584 8.58955 7.60648 9.06801C7.1271 9.54646 6.55083 9.78569 5.87768 9.78569Z"
    fill="#030321" />
</svg>