<svg width="31" height="31" viewBox="0 0 31 31" fill="none" xmlns="http://www.w3.org/2000/svg">
  <path
    d="M2.12699 8.37069V2.10889H8.37055V4.68521H4.68507V8.37069H2.12699ZM2.12699 28.8731V22.6295H4.68507V26.315H8.37055V28.8731H2.12695H2.12699ZM22.6294 28.8731V26.315H26.3149V22.6295H28.8912V28.8731H22.6294ZM26.3149 8.37069V4.68521H22.6294V2.10889H28.8912V8.37069H26.3149ZM22.8625 22.8949H24.8968V24.9293H22.8625V22.8949ZM22.8625 18.8262H24.8968V20.8605H22.8625V18.8262ZM20.8281 20.8605H22.8625V22.8949H20.8281V20.8605ZM18.7937 22.8949H20.8281V24.9293H18.7937V22.8949ZM16.7593 20.8605H18.7937V22.8949H16.7593V20.8605ZM20.8281 16.7918H22.8625V18.8262H20.8281V16.7918ZM18.7937 18.8262H20.8281V20.8605H18.7937V18.8262ZM16.7593 16.7918H18.7937V18.8262H16.7593V16.7918ZM24.8968 6.07094V14.2084H16.7593V6.07094H24.8968ZM14.2083 16.7918V24.9293H6.0708V16.7918H14.2083ZM14.2083 6.07094V14.2084H6.0708V6.07094H14.2083ZM12.3929 23.1139V18.6072H7.88617V23.1139H12.3929ZM12.3929 12.3931V7.88632H7.88617V12.3931H12.3929ZM23.0815 12.3931V7.88632H18.5747V12.3931H23.0815Z"
    fill="#F6F6F6" />
</svg>