<svg width="31" height="31" viewBox="0 0 31 31" fill="none" xmlns="http://www.w3.org/2000/svg">
  <path
    d="M3.26147 14.5313V3.22925H14.5313V14.5313H3.26147ZM5.81252 11.948H11.9802V5.81258H5.81252V11.948ZM3.26147 27.7386V16.4688H14.5313V27.7386H3.26147ZM5.81252 25.1876H11.9802V19.0199H5.81252V25.1876ZM16.4688 14.5313V3.22925H27.7708V14.5313H16.4688ZM19.0521 11.948H25.1875V5.81258H19.0521V11.948ZM24.9615 27.7386V24.9292H27.7708V27.7386H24.9615ZM16.4688 19.3105V16.4688H19.2781V19.3105H16.4688ZM19.2781 22.1199V19.3105H22.1198V22.1199H19.2781ZM16.4688 24.9292V22.1199H19.2781V24.9292H16.4688ZM19.2781 27.7386V24.9292H22.1198V27.7386H19.2781ZM22.1198 24.9292V22.1199H24.9615V24.9292H22.1198ZM22.1198 19.3105V16.4688H24.9615V19.3105H22.1198ZM24.9615 22.1199V19.3105H27.7708V22.1199H24.9615Z"
    fill="#F6F6F6" />
</svg>