<svg width="43" height="43" viewBox="0 0 43 43" fill="none" xmlns="http://www.w3.org/2000/svg">
  <path
    d="M38.2833 12.1288V34.7097C38.2833 35.6804 37.9321 36.5144 37.2297 37.2119C36.5273 37.9093 35.6873 38.258 34.7097 38.258H8.29037C7.31968 38.258 6.48563 37.9093 5.78822 37.2119C5.09078 36.5144 4.74207 35.6804 4.74207 34.7097V8.29041C4.74207 7.31276 5.09078 6.47273 5.78822 5.77034C6.48563 5.06798 7.31968 4.7168 8.29037 4.7168H30.8712L38.2833 12.1288ZM34.7097 13.718L29.2821 8.29041H8.29037V34.7097H34.7097V13.718ZM21.4895 31.7982C22.7805 31.7982 23.8814 31.3464 24.7922 30.4426C25.703 29.5389 26.1583 28.4415 26.1583 27.1504C26.1583 25.8594 25.7065 24.7585 24.8027 23.8477C23.899 22.937 22.8016 22.4816 21.5105 22.4816C20.2195 22.4816 19.1186 22.9334 18.2078 23.8372C17.2971 24.7409 16.8417 25.8383 16.8417 27.1293C16.8417 28.4204 17.2936 29.5213 18.1973 30.4321C19.101 31.3429 20.1984 31.7982 21.4895 31.7982ZM10.6643 17.0696H26.6997V10.6644H10.6643V17.0696ZM8.29037 13.718V34.7097V8.29041V13.718Z"
    fill="#030321" />
</svg>