<svg width="43" height="43" viewBox="0 0 43 43" fill="none" xmlns="http://www.w3.org/2000/svg">
  <path
    d="M8.29025 38.258C7.31955 38.258 6.4855 37.9093 5.7881 37.2119C5.09066 36.5144 4.74194 35.6804 4.74194 34.7097V27.2334H8.29025V34.7097H15.7666V38.258H8.29025ZM27.2332 38.258V34.7097H34.7095V27.2334H38.2831V34.7097C38.2831 35.6804 37.932 36.5144 37.2296 37.2119C36.5272 37.9093 35.6872 38.258 34.7095 38.258H27.2332ZM4.74194 15.7667V8.29041C4.74194 7.31276 5.09066 6.47273 5.7881 5.77034C6.4855 5.06798 7.31955 4.7168 8.29025 4.7168H15.7666V8.29041H8.29025V15.7667H4.74194ZM34.7095 15.7667V8.29041H27.2332V4.7168H34.7095C35.6872 4.7168 36.5272 5.06798 37.2296 5.77034C37.932 6.47273 38.2831 7.31276 38.2831 8.29041V15.7667H34.7095Z"
    fill="#F6F6F6" />
</svg>